<?xml version="1.0" encoding="utf-8" ?><svg xmlns="http://www.w3.org/2000/svg" xmlns:xlink="http://www.w3.org/1999/xlink" width="1344" height="768" viewBox="0 0 1344 768"><path fill="#381449" d="M426.977 339.641C433.935 339.061 444.899 340.106 452.528 340.037C467.69 339.901 483.846 339.609 498.956 340.33C492.804 352.318 486.752 364.357 480.799 376.446C467.716 376.084 454.628 375.967 441.541 376.094C435.199 376.118 421.559 374.661 417.271 379.75C417.156 385.181 431.545 384.265 435.314 383.953C451.167 382.641 468.563 382.83 480.594 394.985C487.718 402.182 492.491 413.207 492.501 423.385C492.495 434.268 488.174 444.704 480.486 452.406C475.915 456.934 470.233 460.179 464.012 461.816C454.36 464.322 412.434 463.402 399.641 463.375C375.375 463.488 351.108 463.475 326.842 463.336C332.633 451.111 338.192 439.269 344.826 427.468C381.21 425.278 418.66 429.302 455.066 427.288C457.34 427.162 458.665 424.577 457.948 422.283C453.516 418.084 440.793 419.244 434.83 419.263L404.794 419.417C398.638 403.351 389.06 387.126 383.851 372.153C390.608 348.39 403.455 340.836 426.977 339.641Z"/><path fill="#EF2229" d="M272.946 207.342C275.635 209.826 287.586 230.625 290.314 235.145C268.879 252.581 254.479 273.24 248.969 300.579C247.522 307.761 244.762 326.453 248.807 332.577C250.625 333.703 249.875 333.596 251.753 333.382C254.636 330.613 253.625 324.197 253.664 320.278C253.954 291.115 269.893 257.374 294.296 240.855C300.299 250.487 306.435 260.035 312.702 269.497C305.094 275.753 298.697 281.757 293.864 290.365C284.522 311.421 284.418 322.709 288.645 344.387C282.032 355.559 276.871 366.935 271.895 378.873C271.32 380.253 270.259 381.53 268.959 382.29C268.129 381.099 268.527 375.889 267.135 372.997C261.944 362.214 258.911 347.016 253.71 336.846C245.441 332.855 223.89 333.994 213.75 334.063C213.793 323.667 214.555 313.286 216.031 302.995C221.95 262.007 240.008 232.002 272.946 207.342Z"/><path fill="#381449" d="M318.08 339.668C319.675 339.462 334.143 339.965 336.648 340.003L269.427 477.271C259.566 458.976 247.122 429.505 238.13 409.869L217.77 366.226C214.391 359.059 208.306 347.058 205.842 340.056C218.138 339.519 233.148 339.881 245.582 339.977C252.387 357.685 262.339 378.529 270.461 395.614C279.098 376.863 288.64 358.646 297.24 340.093C304.245 340.081 311.079 340.128 318.08 339.668Z"/><path fill="#8C7B1A" d="M238.342 555.453C249.627 530.399 263.607 503.424 275.612 478.317C287.445 453.298 299.488 428.378 311.738 403.56C318.737 389.093 325.047 375.173 332.423 360.786C337.962 372.055 346.7 388.797 350.581 400.137C341.429 414.913 329.019 442.995 320.92 459.471L273.25 555.321L238.342 555.453Z"/><path fill="#61520F" d="M329.702 469.624C361.017 469.856 393.344 470.38 424.613 469.849C438.965 498.067 452.711 526.59 465.84 555.398L442.398 555.402L428.112 555.499C419.859 538.468 410.215 519.523 403.051 502.176C370.907 502.176 338.763 502.414 306.622 502.891C311.192 492.36 317.498 480.356 322.672 470.073L329.702 469.624Z"/><path fill="#EF2229" d="M425.311 207.357C466.233 234.324 483.48 287.166 483.578 334.072C477.942 334.205 472.085 334.144 466.43 334.162L450.22 334.099C450.065 288.984 442.046 266.322 408.706 234.785C413.729 225.481 419.652 216.294 425.311 207.357Z"/><path fill="#381449" d="M343.043 340.167L361.745 339.997C372.671 362.278 383.377 384.667 393.861 407.159C395.121 409.878 397.004 414.133 398.889 416.512C399.533 417.326 402.742 417.356 403.383 419.513C399.498 421.879 367.539 420.687 360.297 420.595C357.168 413.244 354.178 407.224 350.581 400.137C346.7 388.797 337.962 372.055 332.423 360.786C335.843 353.851 339.384 346.977 343.043 340.167Z"/><path fill="#EF2229" d="M403.714 242.119C436.088 265.645 444.304 295.884 444.25 334.018L427.383 334.035L410.22 334.16C411.127 328.857 411.536 323.481 411.444 318.102C410.865 296.252 401.642 283.959 386.536 269.632C392.038 260.323 397.765 251.149 403.714 242.119Z"/><path fill="#381449" d="M902.788 344.829C910.405 343.854 919.234 345.852 925.425 350.53C931.349 355.041 935.234 361.724 936.222 369.105C937.333 376.726 935.349 384.475 930.711 390.623C924.907 398.208 918.349 400.317 909.449 401.52C901.157 401.75 894.107 400.971 887.152 395.903C881 391.367 876.958 384.521 875.957 376.942C873.37 358.734 885.596 347.217 902.788 344.829ZM907.542 390.342C916.986 389.655 924.091 381.451 923.425 372.004C922.759 362.557 914.572 355.432 905.126 356.078C895.651 356.726 888.501 364.945 889.169 374.421C889.838 383.897 898.07 391.031 907.542 390.342Z"/><path fill="#381449" d="M778.812 345.295L789.543 345.323C795.829 353.75 804.826 369.785 810.467 379.305L830.975 345.768C834.24 345.386 838.831 345.394 842.208 345.299C842.61 363.308 842.338 382.374 842.358 400.464L829.744 400.44L829.537 393.037C829.59 385.412 829.516 377.787 829.315 370.164C823.454 377.133 818.798 388.103 812.593 394.795C811.484 395.991 810.581 395.736 809.271 395.603C805.047 392.914 794.717 374.777 790.818 369.151C790.881 378.656 791.623 391.392 790.941 400.461L779.029 400.426C778.75 382.051 778.678 363.672 778.812 345.295Z"/><path fill="#EF2229" d="M381.846 276.281C396.693 284.197 404.41 303.119 404.576 319.33C404.81 342.262 393.01 344.831 379.559 358.487C376.16 350.813 372.334 343.095 368.688 335.518C382.47 317.617 381.817 305.454 366.478 289.323C372.345 284.649 376.306 281.458 381.846 276.281Z"/><path fill="#381449" d="M608.73 345.511C612.859 345.403 617.297 345.504 621.454 345.528C625.581 353.139 629.967 363.46 633.657 371.486C637.764 380.42 642.988 391.289 646.284 400.389L632.603 400.453L627.999 389.235L620.317 388.822C614.43 388.643 608.231 388.721 602.317 388.707C600.925 392.379 598.936 396.775 597.387 400.457L583.958 400.474C589.714 385.251 601.204 360.161 608.73 345.511ZM606.322 379.258L615.948 379.387C618.335 379.226 621.186 379.107 623.519 378.833C621.913 374.751 616.053 361.936 615.097 358.816L606.322 379.258Z"/><path fill="#EF2229" d="M315.141 274.816C319.071 275.788 329.566 286.701 333.144 290.121C316.918 303.153 317.468 316.399 325.355 334.035L314.672 334.12C307.047 334.17 300.544 333.951 292.968 333.575C290.857 307.292 295.118 292.654 315.141 274.816Z"/><path fill="#381449" d="M669.39 344.824C678.043 343.991 685.756 346.084 693.652 349.185L688.837 358.92C683.025 357.072 663.342 349.875 662.987 360.933C665.306 366.52 676.648 368.206 681.884 370.044C694.09 374.329 701.286 382.749 691.15 394.171C685.574 400.454 679.138 400.865 671.147 401.333C661.216 401.144 656.528 399.393 647.456 395.777C649.206 392.314 651.057 389.044 652.955 385.667C661.426 389.658 673.044 395.261 681.913 387.21C682.351 386.812 682.16 386.028 682.152 385.375C676.168 376.611 649.993 377.849 648.563 363.687C647.439 352.549 659.521 346.224 669.39 344.824Z"/><path fill="#381449" d="M530.197 345.511C534.515 345.235 539.486 345.419 543.858 345.473C549.739 356.824 555.436 371.132 561.32 383.125C567.44 371.163 573.026 357.797 578.283 345.433C582.542 345.348 587.197 345.468 591.489 345.496C589.994 349.241 587.989 353.518 586.343 357.258C580.164 371.684 573.878 386.064 567.487 400.397L554.055 400.452C545.686 383.44 537.67 363.125 530.197 345.511Z"/><path fill="#381449" d="M1121.53 357.913C1139.56 356.803 1145.41 366.869 1146.81 383.108C1138.89 382.115 1121.95 382.679 1113.63 382.761C1124.44 398.851 1131.73 385.59 1139.02 389.319L1144.35 394.807C1134.5 401.666 1122.17 404.816 1111.44 397.776C1106.32 394.406 1102.79 389.104 1101.65 383.082C1098.83 368.537 1108.03 360.143 1121.53 357.913ZM1127.6 375.45L1134.84 375.332C1131.4 369.739 1129.48 366.985 1122.45 366.906C1119.18 368.061 1114.67 370.054 1114.87 374.242C1117.76 376.671 1123.28 375.391 1127.6 375.45Z"/><path fill="#FDDF2D" d="M346.869 291.778C358.31 290.197 368.873 298.176 370.484 309.615C372.095 321.055 364.147 331.641 352.714 333.283C341.238 334.931 330.606 326.945 328.989 315.462C327.372 303.979 335.385 293.365 346.869 291.778Z"/><path fill="#381449" d="M727.989 345.432C742.16 345.256 756.334 345.233 770.506 345.364L770.491 356.341C760.808 356.106 751.121 356.111 741.438 356.357C741.407 360.995 741.47 365.704 741.491 370.349C748.337 370.197 760.829 369.64 766.996 371.16L766.81 380.699C758.355 380.628 749.9 380.61 741.445 380.645C741.386 387.196 741.494 393.905 741.523 400.471L727.895 400.4C727.771 382.077 727.802 363.754 727.989 345.432Z"/><path fill="#381449" d="M949.564 358.013C952.383 357.982 954.539 357.81 957.267 358.563L958.472 361.165C960.996 361.364 962.066 359.814 964.232 359.152C994.895 349.774 990.086 384.049 989.619 400.828L976.617 400.753L976.613 383.508C976.764 377.856 975.574 368.112 967.54 368.48C955.102 369.05 957.781 391.689 958.264 400.427L945.561 400.443C945.368 387.421 944.753 371.912 945.241 359.078C946.451 357.874 947.453 358.203 949.564 358.013Z"/><path fill="#381449" d="M1074.71 357.28C1098.06 358.573 1093.76 383.205 1093.3 400.463L1080.31 400.447C1080.15 391.438 1083.96 361.949 1066.15 369.062C1059.81 377.559 1061.38 390.089 1061.75 400.459L1048.72 400.457C1048.63 387.296 1048.21 370.763 1049.13 357.899C1055.79 357.609 1058.54 357.063 1062.32 360.515C1062.45 360.64 1072.42 357.667 1074.71 357.28Z"/><path fill="#381449" d="M1001.41 342.236L1013.78 342.156C1012.97 361.376 1013.66 381.151 1013.61 400.471L1000.6 400.498C1000.44 393.446 999.866 345.893 1001.41 342.236Z"/><path fill="#381449" d="M1025.23 357.902L1037.98 357.745C1036.91 370.169 1037.75 387.969 1038.11 400.476L1024.46 400.499C1024.38 390.707 1023.73 366.158 1025.23 357.902Z"/><path fill="#61520F" d="M940.519 428.697C942.88 428.863 947.484 428.887 948.23 431.528C945.698 433.12 941.313 432.422 938.444 434.199C940.404 436.209 943.609 437.302 945.859 438.52C952.365 442.43 949.833 436.4 956.421 433.978C968.879 429.398 973.584 445.548 962.617 448.838L958.092 447.838C956.408 448.915 958.519 450.53 956.685 453.432C954.768 454.112 955.566 454.132 953.698 453.368C952.4 451.048 952.847 447.264 952.813 444.244C949.92 445.738 934.41 453.271 934.364 445.388C936.897 443.039 941.525 445.267 944.508 443.4C943.879 440.7 938.206 441.321 934.253 435.845C933.362 431.086 936.604 430.092 940.519 428.697ZM960.85 444.733C962.842 444.534 964.309 442.779 964.153 440.783C963.997 438.787 962.274 437.283 960.275 437.397C958.945 437.473 957.759 438.263 957.176 439.462C956.593 440.661 956.705 442.082 957.467 443.176C958.23 444.269 959.524 444.865 960.85 444.733Z"/><path fill="#61520F" d="M761.232 430.325L764.175 430.886C765.484 433.297 765.817 433.671 768.119 435.223L768.678 435.594L768.453 436.487C765.471 438.129 764.321 438.182 764.304 441.774C765.402 444.344 767.158 445.346 769.411 447.027C768.06 449.097 766.827 449.364 764.587 449.189C761.145 447.198 760.01 441.592 758.781 437.712C755.6 438.987 756.139 445.899 753.364 448.364C747.274 448.711 740.386 450.143 740.272 441.642C740.235 438.951 739.702 436.597 741.103 434.055C743.041 433.626 742.246 433.615 744.169 434.316C745.75 437.013 743.871 439.431 745.142 443.441C746.855 444.874 746.014 444.496 748.474 444.683C752.973 442.503 749.177 439.069 751.249 434.614C753.482 433.156 754.639 433.964 757.938 434.333C760.456 433.204 759.739 433.416 761.232 430.325Z"/><path fill="#61520F" d="M880.908 430.407C885.902 430.411 885.957 434.446 895.677 433.713L898.84 442.46C900.24 439.6 901.683 435.269 904.904 434.527C906.999 439.333 901.522 449.294 897.75 452.528C895.623 454.353 893.167 453.719 890.666 453.347C891.683 449.775 893.772 449.757 897.104 448.627C895.525 444.713 891.174 430.846 884.988 438.578C883.97 444.719 887.995 443.331 888.798 447.695C886.639 449.334 887.458 449.162 885.254 449.304C880.514 446.811 879.086 435.391 880.908 430.407Z"/><path fill="#61520F" d="M635.409 433.134C642.021 433.803 640.538 436.32 645.486 439.377C648.54 438.703 645.929 435.938 650.005 433.962C650.309 434.04 653.66 434.892 653.661 434.892C655.577 434.555 655.756 433.592 657.56 434.409C657.652 436.493 657.888 435.749 656.914 437.476C651.19 439.285 653.063 441.696 652.146 447.953C650.585 448.741 651.406 448.593 649.582 448.276C648.051 446.788 648.1 444.872 647.87 442.745C646.537 442.294 635.742 442.622 634.639 443.173C635.096 443.708 640.582 444.912 642.729 446.099L642.944 446.95C636.885 452.583 618.962 443.08 635.409 433.134Z"/><path fill="#61520F" d="M860.616 432.359C863.542 433.132 865.282 433.526 866.554 436.583C864.833 438.419 861.181 436.793 857.66 438.823C856.502 440.817 856.725 439.892 857.02 442.419C860.442 447.275 862.367 442.503 866.636 444.594L866.384 445.706C864.823 447.446 864.505 447.917 862.288 448.817C858.437 449.06 856.282 447.032 853.479 444.647L852.894 443.94C849.412 444.347 848.528 449.953 844.454 448.11C843.564 445.119 843.412 436.878 845.235 434.3L846.442 434.172C848.621 435.447 849.542 438.415 850.599 440.827C854.3 437.037 855.985 435.064 860.616 432.359Z"/><path fill="#61520F" d="M724.957 429.063L727.639 429.618C730.816 432.374 737.077 444.473 736.049 448.466C732.218 449.621 733.467 446.186 729.808 444.38C720.259 444.007 723.179 447.022 716.78 448.453C716.136 445.191 723.088 432.701 724.957 429.063Z"/><path fill="#381449" d="M1027.72 338.191C1037.89 336.956 1044.79 345.315 1034.47 352.466C1033.27 352.568 1031.02 352.672 1029.85 352.476C1027.57 352.112 1025.55 350.816 1024.27 348.899C1021.42 344.694 1023.9 340.555 1027.72 338.191Z"/><path fill="#61520F" d="M806.9 445.287L806.88 445.5C801.352 453.032 785.98 445.497 793.675 435.923C794.738 434.584 796.313 433.753 798.018 433.631C804.813 433.147 806.806 436.948 807.229 442.943C804.694 442.596 804.265 442.509 801.699 443.034L801.744 443.881C803.597 444.788 804.893 444.912 806.9 445.287Z"/><path fill="#61520F" d="M977.959 433.207C982.385 433.532 987.702 436.113 987.209 441.214C983.633 443.836 980.612 440.911 977.04 443.012L976.972 443.791C980.448 445.095 982.309 443.859 985.761 445.073C985.552 446.283 985.395 446.391 984.871 447.495C979.798 451.244 974.569 446.472 970.773 442.933C972.263 436.514 971.609 435.924 977.959 433.207Z"/><path fill="#61520F" d="M773.005 428.08C775.503 428.479 775.986 428.276 777.336 429.845C777.046 431.713 776.859 432.016 777.615 433.643C781.054 436.281 790.705 432.285 788.617 443.046C788.053 445.955 787.908 447.394 784.99 448.716C783.589 447.495 783.994 448.132 783.772 445.862C783.723 442.172 784.581 438.265 780.495 437.648C775.722 439.788 778.879 445.579 775.731 448.689C774.021 448.268 774.784 448.656 773.441 447.344C772.716 442.337 772.989 433.438 773.005 428.08Z"/><path fill="#61520F" d="M679.209 433.306C685.852 432.368 684.203 435.68 688.166 439.187C690.172 438.952 692.586 434.597 695.576 433.909C696.66 436.49 692.491 444.496 691.27 447.19C691.131 447.556 690.986 447.919 690.835 448.28C689.552 451.313 685.522 455.89 682.037 454.23C681.194 452.555 681.24 453.238 681.588 451.588C688.551 448.106 684.985 444.483 682.376 438.867C681.53 437.045 680.23 435.065 679.209 433.306Z"/><path fill="#61520F" d="M618.469 442.579C619.942 438.766 622.39 429.469 626.943 429.357C627.861 431.178 627.464 431.028 626.904 433.39C625.373 437.672 622.508 447.898 617.206 447.302C613.511 444.773 609.974 433.852 608.141 429.186C615.043 429.134 615.818 436.672 618.469 442.579Z"/><path fill="#61520F" d="M1031.05 426.442C1032.92 427.123 1034.44 427.751 1034.66 429.834C1032.97 431.811 1027.57 430.654 1023.19 432.597L1023.05 433.493C1024.51 434.035 1025.3 434.384 1026.69 435.104C1026.46 437.048 1023.6 438.94 1022.71 440.347C1022.23 441.096 1022.59 447.071 1022.65 448.22C1020.62 448.69 1020.19 448.891 1018.34 448.02C1017.22 445.607 1018.81 441.845 1017.8 438.042L1016.18 437.73C1015.58 435.914 1016.64 432.161 1017.98 430.815C1020.98 427.816 1025.43 428.611 1029.24 428.447L1031.05 426.442Z"/><path fill="#61520F" d="M811.488 434.054C818.055 434.782 827.036 430.514 826.203 441.466C826.017 443.915 826.822 447.086 824.857 448.679C820.516 447.762 821.937 443.995 820.062 442.565L821.098 442.049C821.546 440.402 821.572 440.492 821.074 438.877C819.026 437.361 819.729 437.428 817.543 437.289C815.397 439.337 816.557 443.508 814.495 447.468C812.543 448.776 813.461 448.545 811.03 448.264C810.796 446.882 810.75 435.077 811.488 434.054Z"/><path fill="#61520F" d="M1043.32 433.813C1047.67 433.826 1048.97 434.296 1052.54 436.646L1052.48 437.359C1048.79 437.875 1044.55 437.694 1042.44 440.928C1042.71 443.231 1042.3 442.577 1043.69 444.026C1046.13 444.936 1048.52 444.255 1051.14 443.824C1052.18 445.162 1051.88 444.626 1051.9 446.645C1046.15 452.329 1027.31 443.989 1043.32 433.813Z"/><path fill="#61520F" d="M674.279 428.011C676.87 428.488 677.874 428.235 679.677 429.742C679.028 431.388 677.721 431.783 676.091 433.193C677.709 434.542 679.102 435.237 678.781 437.326L676.764 438.098C675.218 439.917 675.509 445.898 675.416 448.757C674.632 448.756 672.481 448.526 672.13 447.845C669.42 442.589 668.345 431.372 674.279 428.011Z"/><path fill="#61520F" d="M997.822 433.183C1000.78 433.451 1002 433.63 1003.69 435.959C1002.24 438.775 996.668 437.466 993.339 440.222L993.387 441.629C998.568 447.492 999.473 441.834 1004.41 444.778C999.792 455.626 977.94 441.247 997.822 433.183Z"/><path fill="#61520F" d="M831.642 430.397C834.965 431.611 837.026 431.944 838.186 435.471C837.975 437.766 835.611 440.071 834.047 441.914C837.039 444.143 839.551 446.512 842.473 448.749C829.473 450.629 828.091 440.02 831.642 430.397Z"/><path fill="#61520F" d="M1009.55 433.007C1012.23 433.44 1012.08 432.99 1013.47 434.976C1013.86 439.079 1012.84 444.916 1012.05 448.999L1009.6 448.453C1006.83 445.565 1007 435.622 1009.55 433.007Z"/><path fill="#61520F" d="M1029.25 433.761C1032.53 434.071 1032.13 433.493 1033.88 435.396C1035.2 439.818 1034.31 444.081 1033.99 448.839C1032.13 448.709 1031.67 448.842 1030.28 447.755C1028.74 443.446 1029.22 438.438 1029.25 433.761Z"/><path fill="#61520F" d="M871.015 433.928C872.417 433.889 872.951 433.961 874.348 434.149C876.868 437.428 875.411 444.762 874.903 448.823C873.894 448.607 872.206 448.452 871.73 447.791C869.801 445.105 870.849 437.112 871.015 433.928Z"/><path fill="#61520F" d="M662.085 433.552L664.176 434.277C666.552 437.157 665.968 445.74 664.549 449.012L662.477 448.474C660.366 446.085 660.391 436.345 662.085 433.552Z"/><path fill="#FEFEFE" fill-opacity="0.031372551" d="M806.9 445.287C804.893 444.912 803.597 444.788 801.744 443.881L801.699 443.034C804.265 442.509 804.694 442.596 807.229 442.943L806.9 445.287Z"/></svg>